#N canvas 640 221 450 300 10;
#X obj 49 44 bng 15 250 50 0 empty empty empty 17 7 0 10 -262144 -1
-1;
#X obj 52 162 receive obladi;
#X obj 52 189 print OBLADI;
#X obj 184 160 receive oblada;
#X obj 184 188 print OBLADA;
#X obj 49 72 mailman 2 obladi oblada;
#X connect 0 0 5 0;
#X connect 1 0 2 0;
#X connect 3 0 4 0;
