#N canvas 662 210 450 300 10;
#X obj 172 95 osc~ 440;
#X obj 203 212 dac~;
#X obj 240 11 vsl 15 128 0 1 0 0 empty empty empty 0 -9 0 10 -262144
-1 -1 1000 1;
#X obj 171 153 multigain~ 2;
#X connect 0 0 3 0;
#X connect 0 0 3 1;
#X connect 2 0 3 2;
#X connect 3 0 1 0;
#X connect 3 1 1 1;
