#N canvas 50 82 450 300 10;
#X obj 113 113 multiplus 5;
#X msg 113 2 bang;
#X obj 176 142 print;
#X obj 160 164 print;
#X obj 144 186 print;
#X obj 128 208 print;
#X obj 113 231 print;
#X floatatom 176 94 5 0 0 0 - - -;
#X floatatom 163 76 5 0 0 0 - - -;
#X floatatom 150 58 5 0 0 0 - - -;
#X floatatom 138 40 5 0 0 0 - - -;
#X floatatom 125 22 5 0 0 0 - - -;
#X connect 0 0 6 0;
#X connect 0 1 5 0;
#X connect 0 2 4 0;
#X connect 0 3 3 0;
#X connect 0 4 2 0;
#X connect 1 0 0 0;
#X connect 7 0 0 5;
#X connect 8 0 0 4;
#X connect 9 0 0 3;
#X connect 10 0 0 2;
#X connect 11 0 0 1;
