#N canvas 682 218 450 300 10;
#X obj 19 27 osc~ \$1;
#X obj 71 27 osc~ \$2;
#X obj 123 27 osc~ \$3;
#X obj 175 27 osc~ \$4;
#X obj 19 4 inlet;
#X obj 71 4 inlet;
#X obj 123 3 inlet;
#X obj 175 3 inlet;
#X obj 110 82 outlet~;
#X connect 0 0 8 0;
#X connect 1 0 8 0;
#X connect 2 0 8 0;
#X connect 3 0 8 0;
#X connect 4 0 0 0;
#X connect 5 0 1 0;
#X connect 6 0 2 0;
#X connect 7 0 3 0;
