#N canvas 567 186 349 366 10;
#X floatatom 11 109 0 0 0 0 - - -;
#X obj 50 86 + 1;
#X obj 11 86 float;
#X msg 71 41 stop;
#X obj 11 62 metro 10;
#X obj 52 111 sel \$1;
#X obj 11 28 loadbang;
#X obj 158 206 t f f f;
#X obj 158 252 pack 0 0;
#X msg 155 277 connect \$1 0 \$2 0;
#X msg 42 253 obj \$1 10 osc~ \$2;
#X obj 15 199 t f f;
#X msg 15 295 obj \$1 70 dac~;
#X obj 15 152 * 60;
#X obj 15 174 + 150;
#X obj 14 131 t f f f;
#X obj 87 199 * \$2;
#X obj 42 227 pack 0 0;
#X msg 161 303 connect \$1 0 \$2 1;
#X obj 158 184 * 2;
#X obj 158 228 + 22;
#X obj 195 228 + 23;
#X obj 11 8 namecanvas \$0-mypoliosc;
#X obj 112 337 s \$0-mypoliosc;
#X connect 0 0 5 0;
#X connect 0 0 15 0;
#X connect 1 0 0 0;
#X connect 1 0 2 1;
#X connect 2 0 1 0;
#X connect 3 0 4 0;
#X connect 3 0 4 0;
#X connect 4 0 2 0;
#X connect 5 0 3 0;
#X connect 6 0 4 0;
#X connect 7 0 20 0;
#X connect 7 1 21 0;
#X connect 8 0 9 0;
#X connect 8 0 18 0;
#X connect 9 0 23 0;
#X connect 10 0 23 0;
#X connect 11 0 12 0;
#X connect 11 1 17 0;
#X connect 12 0 23 0;
#X connect 13 0 14 0;
#X connect 14 0 11 0;
#X connect 15 0 19 0;
#X connect 15 1 13 0;
#X connect 15 2 16 0;
#X connect 16 0 17 1;
#X connect 17 0 10 0;
#X connect 18 0 23 0;
#X connect 19 0 7 0;
#X connect 20 0 8 0;
#X connect 21 0 8 1;
