#N canvas 162 112 303 363 10;
#X obj 67 76 inlet~;
#X obj 111 76 inlet;
#X obj 111 118 vsl 15 128 0 1 0 0 empty empty empty 0 -9 0 10 -262144
-1 -1 0 1;
#X floatatom 105 252 5 0 0 0 - - -, f 5;
#X obj 68 281 *~;
#X obj 67 312 outlet~;
#X connect 0 0 4 0;
#X connect 1 0 2 0;
#X connect 2 0 3 0;
#X connect 3 0 4 1;
#X connect 4 0 5 0;
#X coords 0 -1 1 1 40 170 1 100 100;
